<svg fill="#4487DB" xmlns="http://www.w3.org/2000/svg" xmlns:xlink="http://www.w3.org/1999/xlink" version="1.1" x="0px" y="0px" viewBox="0 0 100 100" enable-background="new 0 0 100 100" xml:space="preserve"><path d="M93.61,92.196L68.094,66.68c-0.084-0.084-0.184-0.142-0.285-0.189c13.292-13.996,13.085-36.189-0.643-49.915  C60.409,9.818,51.425,6.097,41.87,6.097c-9.556,0-18.539,3.722-25.295,10.479C9.817,23.332,6.097,32.314,6.097,41.87  s3.721,18.539,10.479,25.296c6.756,6.757,15.739,10.479,25.295,10.479c9.243,0,17.945-3.491,24.62-9.835  c0.049,0.102,0.105,0.2,0.189,0.284L92.196,93.61c0.195,0.195,0.451,0.293,0.707,0.293s0.512-0.098,0.707-0.293  C94.001,93.22,94.001,92.587,93.61,92.196z M41.87,75.645c-9.021,0-17.502-3.514-23.881-9.893c-6.38-6.379-9.893-14.86-9.893-23.882  c0-9.021,3.513-17.502,9.893-23.881c6.379-6.379,14.859-9.893,23.881-9.893c9.021,0,17.502,3.514,23.882,9.893  c13.168,13.168,13.168,34.594,0,47.763C59.372,72.131,50.891,75.645,41.87,75.645z"></path></svg>